<?xml version="1.0" encoding="UTF-8"?>
<svg width="56" height="56" viewBox="0 0 56 56" fill="none" xmlns="http://www.w3.org/2000/svg">
  <rect width="56" height="56" rx="28" fill="#E2E8F0"/>
  <path d="M28 14C21.37 14 16 19.37 16 26C16 32.63 21.37 38 28 38C34.63 38 40 32.63 40 26C40 19.37 34.63 14 28 14ZM28 20C30.21 20 32 21.79 32 24C32 26.21 30.21 28 28 28C25.79 28 24 26.21 24 24C24 21.79 25.79 20 28 20ZM28 35.2C24.5 35.2 21.38 33.39 19.8 30.6C19.84 27.75 25.5 26.2 28 26.2C30.49 26.2 36.16 27.75 36.2 30.6C34.62 33.39 31.5 35.2 28 35.2Z" fill="#94A3B8"/>
  <circle cx="28" cy="48" r="6" fill="#CBD5E1"/>
</svg>